0
SECTION
2
HEADER
9
$INSUNITS
70
4
9
$ACADVER
1
AC1014
9
$HANDSEED
5
FFFF
0
ENDSEC
0
SECTION
2
TABLES
0
TABLE
2
VPORT
5
8
100
AcDbSymbolTable
0
ENDTAB
0
TABLE
2
LTYPE
5
5
100
AcDbSymbolTable
0
LTYPE
5
14
100
AcDbSymbolTableRecord
100
AcDbLinetypeTableRecord
2
BYBLOCK
70
0
0
LTYPE
5
15
100
AcDbSymbolTableRecord
100
AcDbLinetypeTableRecord
2
BYLAYER
70
0
0
ENDTAB
0
TABLE
2
LAYER
5
2
100
AcDbSymbolTable
70
2
0
LAYER
5
50
100
AcDbSymbolTableRecord
100
AcDbLayerTableRecord
2
0
70
0
6
CONTINUOUS
0
ENDTAB
0
TABLE
2
STYLE
5
3
100
AcDbSymbolTable
70
1
0
STYLE
5
11
100
AcDbSymbolTableRecord
100
AcDbTextStyleTableRecord
2
STANDARD
70
0
0
ENDTAB
0
TABLE
2
VIEW
5
6
100
AcDbSymbolTable
70
0
0
ENDTAB
0
TABLE
2
UCS
5
7
100
AcDbSymbolTable
70
0
0
ENDTAB
0
TABLE
2
APPID
5
9
100
AcDbSymbolTable
70
2
0
APPID
5
12
100
AcDbSymbolTableRecord
100
AcDbRegAppTableRecord
2
ACAD
70
0
0
ENDTAB
0
TABLE
2
DIMSTYLE
5
A
100
AcDbSymbolTable
70
1
0
ENDTAB
0
TABLE
2
BLOCK_RECORD
5
1
100
AcDbSymbolTable
70
1
0
BLOCK_RECORD
5
1F
100
AcDbSymbolTableRecord
100
AcDbBlockTableRecord
2
*MODEL_SPACE
0
BLOCK_RECORD
5
1B
100
AcDbSymbolTableRecord
100
AcDbBlockTableRecord
2
*PAPER_SPACE
0
ENDTAB
0
ENDSEC
0
SECTION
2
BLOCKS
0
BLOCK
5
20
100
AcDbEntity
100
AcDbBlockBegin
2
*MODEL_SPACE
0
ENDBLK
5
21
100
AcDbEntity
100
AcDbBlockEnd
0
BLOCK
5
1C
100
AcDbEntity
100
AcDbBlockBegin
2
*PAPER_SPACE
0
ENDBLK
5
1D
100
AcDbEntity
100
AcDbBlockEnd
0
ENDSEC
0
SECTION
2
ENTITIES
0
CIRCLE
5
100
100
AcDbEntity
8
0
100
AcDbCircle
10
177.37894560333689
20
20
30
0
40
1.875
210
2.4651903288156619e-32
220
-0
230
1
0
CIRCLE
5
101
100
AcDbEntity
8
0
100
AcDbCircle
10
177.378945461049
20
74.999999950935234
30
0
40
1.875
210
2.4651903288156619e-32
220
-0
230
1
0
CIRCLE
5
102
100
AcDbEntity
8
0
100
AcDbCircle
10
149.99999999345803
20
122.37894523941392
30
0
40
1.875
210
2.4651903288156619e-32
220
-0
230
1
0
CIRCLE
5
103
100
AcDbEntity
8
0
100
AcDbCircle
10
-225
20
20
30
0
40
1.875
210
2.4651903288156619e-32
220
-0
230
1
0
CIRCLE
5
104
100
AcDbEntity
8
0
100
AcDbCircle
10
-225
20
67.98805044796498
30
0
40
1.875
210
2.4651903288156619e-32
220
-0
230
1
0
CIRCLE
5
105
100
AcDbEntity
8
0
100
AcDbCircle
10
-210.00000000000003
20
102.96564503789935
30
0
40
1.875
210
2.4651903288156619e-32
220
-0
230
1
0
CIRCLE
5
106
100
AcDbEntity
8
0
100
AcDbCircle
10
-174.99303978607745
20
102.96564503789935
30
0
40
1.875
210
2.4651903288156619e-32
220
-0
230
1
0
LWPOLYLINE
5
107
100
AcDbEntity
8
0
100
AcDbPolyline
90
34
70
1
43
0.0
10
-17.999999956395783
20
156
10
-17.999999956395783
20
152.00000000000003
10
-78.000000000000028
20
152.00000000000003
10
-78.000000000000043
20
77.999999999999972
10
-86.000000000000057
20
77.999999999999972
10
-86.000000000000057
20
155.99999999999997
10
-127.03300000000004
20
155.99999999999997
10
-127.03300000000004
20
162
10
-157.03300000000004
20
162
10
-157.03300000000004
20
155.99999999999997
10
-171.88630943675486
20
155.99999999999997
10
-239.99999999999989
20
87.98805044796498
10
-239.99999999999989
20
4.0000000000000036
10
-210.00000000000003
20
4
10
-210.00000000000003
20
80
10
-202.00000000000003
20
80
10
-202.00000000000003
20
4.0000000000000036
10
-18.000000000000043
20
3.9999999999999716
10
-18.000000000000025
20
77.999999999999972
10
-10.000000000000025
20
77.999999999999972
10
-10.000000000000025
20
3.999999999999968
10
142.00000000000006
20
3.9999999999999911
10
142.00000000000006
20
79.999999999999986
10
150.00000026167893
20
79.999999999999986
10
150.000000248595
20
4.0000000000000036
10
159.99989122629972
20
4.0000000327095098
10
159.99989125246762
20
-3.9999999672904907
10
204.75789125246763
20
-3.9999998208876733
10
204.75789092863994
20
94.999999950935234
10
143.7578904805149
20
156
10
61.032999999999973
20
155.99999999999949
10
61.032999999999966
20
161.99999999999949
10
31.032999999999966
20
162.0000000000002
10
31.032999999999966
20
156.0000000000002
0
ENDSEC
0
SECTION
2
OBJECTS
0
DICTIONARY
5
C
100
AcDbDictionary
3
ACAD_GROUP
350
D
3
ACAD_MLINESTYLE
350
17
0
DICTIONARY
5
D
100
AcDbDictionary
0
DICTIONARY
5
1A
330
C
100
AcDbDictionary
0
DICTIONARY
5
17
100
AcDbDictionary
0
ENDSEC
0
EOF
